<svg version="1.0" width="300.000000pt" height="300.000000pt" viewBox="0 0 273.436 236.954" preserveAspectRatio="xMidYMid meet" xmlns="http://www.w3.org/2000/svg" xmlns:bx="https://boxy-svg.com">
  <defs>
    <bx:guide x="138.13459610174635" y="59.464779269709524" angle="-180"></bx:guide>
  </defs>
  <g transform="matrix(0.1, 0, 0, -0.1, -12.396694, 268.122803)" fill="#808080" stroke="none">
    <path d="M845 2568 c21 -280 21 -309 3 -325 -10 -9 -18 -26 -18 -37 0 -12 -14 -30 -33 -43 -17 -13 -66 -46 -108 -75 -42 -29 -108 -74 -146 -100 -66 -45 -70 -49 -91 -115 -12 -37 -27 -93 -35 -123 -14 -60 -13 -58 -205 -191 -39 -27 -72 -53 -72 -57 0 -4 62 -38 138 -75 75 -38 144 -73 154 -80 12 -8 42 -3 130 23 62 18 117 37 122 42 6 4 22 8 36 8 14 0 31 5 38 12 22 22 23 1 2 -88 -12 -49 -32 -138 -46 -198 -13 -59 -26 -112 -29 -116 -3 -4 -13 -52 -24 -106 -11 -55 -24 -112 -30 -128 -7 -16 -9 -31 -7 -33 19 -20 876 -439 882 -433 5 5 70 39 144 75 74 36 142 70 150 75 8 5 138 70 288 145 227 113 272 140 266 153 -4 10 -17 68 -30 130 -13 62 -27 118 -31 125 -4 7 -10 35 -14 62 -4 28 -15 77 -24 110 -9 33 -20 80 -25 105 -5 25 -13 63 -19 85 -5 22 -8 41 -7 43 2 1 14 -1 27 -7 13 -5 62 -21 109 -35 47 -15 108 -34 135 -43 l50 -16 152 76 c83 42 154 80 156 85 5 7 -78 72 -204 161 -42 29 -47 38 -71 119 -15 48 -29 102 -33 119 -5 25 -22 44 -76 83 -38 27 -71 50 -74 50 -3 0 -11 5 -18 10 -27 22 -163 118 -184 129 -13 7 -23 21 -23 33 0 12 -6 29 -13 37 -10 13 -12 59 -7 216 3 110 6 201 6 202 -1 1 -33 -29 -72 -65 -38 -37 -117 -111 -173 -164 l-103 -97 23 -33 c35 -50 81 -109 108 -138 12 -14 47 -56 76 -95 29 -38 80 -104 114 -145 33 -41 61 -80 61 -85 0 -6 -17 -17 -37 -24 -97 -35 -92 -26 -39 -80 l47 -48 -98 -70 c-115 -82 -140 -96 -154 -88 -5 4 -21 -1 -34 -9 -26 -17 -33 -50 -14 -61 7 -5 9 -67 5 -194 -3 -102 -5 -254 -5 -337 l-1 -151 -90 -46 -90 -47 0 139 c0 83 4 142 10 146 6 3 10 19 10 35 0 23 -5 31 -25 36 -14 3 -32 4 -40 0 -17 -6 -21 -61 -5 -71 6 -4 10 -75 10 -181 l0 -174 250 126 c138 69 250 128 250 130 0 1 -9 76 -21 166 -12 96 -18 183 -15 211 6 44 5 48 -19 59 -21 9 -28 8 -45 -7 -24 -21 -26 -48 -5 -65 7 -6 16 -30 19 -53 4 -23 13 -90 21 -148 8 -59 15 -114 15 -123 0 -10 -31 -32 -82 -58 -46 -24 -87 -44 -93 -46 -7 -2 -9 103 -7 305 4 284 5 310 23 340 12 20 76 69 169 131 l150 99 -45 37 c-25 21 -45 41 -45 45 0 4 25 14 55 21 31 7 58 18 62 23 3 5 -13 28 -34 50 -35 37 -93 110 -143 181 -8 11 -29 37 -46 56 -18 19 -49 58 -70 85 -21 28 -55 72 -76 100 l-38 50 107 107 c59 60 111 108 115 108 10 0 -3 -293 -13 -304 -5 -6 -9 -22 -9 -38 0 -28 23 -48 55 -48 9 0 70 -37 136 -82 66 -46 128 -87 137 -93 73 -43 97 -73 120 -149 12 -41 22 -83 22 -91 0 -38 37 -79 136 -151 l106 -77 -121 -61 -120 -61 -68 22 c-339 111 -319 106 -308 66 4 -16 15 -66 26 -113 10 -47 32 -141 48 -210 17 -69 41 -172 55 -230 13 -58 27 -112 30 -120 5 -12 -89 -62 -404 -218 l-410 -203 -406 201 -406 202 5 31 c3 18 13 61 22 97 9 36 20 85 25 110 5 25 16 72 25 105 9 33 22 89 30 125 7 36 20 92 28 125 8 33 18 77 21 98 l7 37 -38 -14 c-21 -7 -78 -26 -128 -41 -49 -15 -104 -34 -121 -41 -77 -31 -93 -29 -212 31 -62 31 -112 59 -112 61 0 8 35 36 127 101 63 44 84 65 89 88 4 16 10 36 15 45 4 8 15 48 24 87 17 72 18 73 84 122 36 27 91 65 121 85 30 20 80 54 110 75 30 22 65 40 77 41 43 0 66 47 43 88 -10 18 -29 302 -20 307 8 5 232 -214 228 -224 -2 -6 -24 -36 -50 -68 -26 -32 -91 -114 -145 -183 -55 -69 -125 -158 -157 -198 -38 -48 -53 -74 -44 -77 7 -3 37 -11 67 -18 l53 -14 -46 -38 c-25 -20 -46 -41 -46 -46 0 -5 64 -51 143 -103 78 -52 151 -105 163 -117 20 -23 21 -36 22 -279 1 -140 5 -283 8 -318 5 -52 4 -62 -9 -62 -9 0 -18 4 -21 9 -3 4 -38 24 -79 44 l-73 36 17 161 c12 114 22 167 33 179 24 27 20 60 -9 73 -21 9 -28 8 -45 -7 -22 -20 -26 -45 -9 -62 7 -7 7 -23 1 -49 -6 -22 -15 -88 -21 -149 -7 -60 -14 -124 -16 -141 -3 -31 -2 -32 148 -108 84 -42 190 -97 237 -121 47 -25 91 -45 98 -45 9 0 13 35 14 138 1 75 2 151 2 169 1 17 4 35 9 39 14 14 7 63 -10 72 -27 16 -63 -6 -63 -39 0 -15 5 -31 10 -34 6 -4 10 -63 10 -145 l0 -139 -89 46 c-63 33 -90 52 -93 67 -7 43 -3 662 5 678 12 23 -24 58 -52 51 -13 -3 -34 5 -58 24 -21 17 -73 53 -115 82 -43 28 -78 55 -78 59 0 4 21 22 45 41 49 36 55 48 28 57 -48 16 -103 40 -103 45 0 3 40 57 89 120 50 63 128 164 174 224 46 61 91 116 101 124 31 26 39 17 -245 289 -42 39 -80 72 -84 72 -4 0 -4 -42 0 -92z"></path>
    <path d="M1274 2278 c-9 -18 -34 -59 -55 -90 -22 -31 -39 -60 -39 -64 0 -4 -12 -22 -26 -41 l-26 -34 122 -151 123 -151 -6 -123 c-4 -96 -2 -126 9 -134 18 -16 44 -9 60 15 11 17 11 25 1 45 -8 15 -14 63 -14 117 -1 99 -3 104 -88 204 -16 19 -41 49 -54 65 -13 16 -41 47 -63 70 l-39 41 25 30 c14 17 26 34 26 38 0 3 21 40 48 80 42 67 50 74 80 75 l32 0 0 -122 1 -123 50 -55 49 -55 50 52 50 52 0 125 0 126 34 0 c32 0 37 -5 67 -57 18 -32 42 -70 54 -84 12 -15 27 -40 34 -58 13 -29 12 -33 -20 -69 -19 -21 -43 -49 -54 -63 -11 -13 -48 -57 -83 -97 l-62 -73 0 -93 c0 -62 -5 -103 -14 -122 -23 -43 4 -81 49 -70 28 7 44 51 26 69 -6 6 -11 49 -11 105 l0 93 80 97 c43 53 97 117 119 142 22 25 41 48 41 53 0 4 -12 26 -27 49 -16 22 -33 49 -39 60 -6 10 -31 50 -55 89 l-44 70 -68 -3 -68 -3 -1 -128 c0 -127 0 -129 -28 -160 l-29 -32 -28 28 c-28 27 -28 30 -31 162 l-4 135 -69 0 c-67 0 -69 -1 -85 -32z"></path>
    <path d="M1052 1928 c-15 -15 -16 -44 -2 -53 6 -3 10 -46 10 -94 l0 -89 61 -43 c88 -63 95 -71 103 -120 4 -24 13 -64 20 -89 8 -25 22 -79 30 -121 l16 -75 103 -53 103 -52 90 51 c102 58 110 67 119 123 4 23 11 47 15 52 4 6 10 28 13 50 3 22 12 70 22 107 14 59 21 70 53 89 20 13 54 36 75 52 l37 29 0 83 c0 46 5 87 10 90 15 9 12 51 -4 65 -8 6 -25 10 -38 8 -23 -3 -23 -5 -19 -114 l3 -110 -71 -48 c-38 -26 -73 -55 -75 -64 -3 -10 -15 -57 -26 -107 -12 -49 -28 -120 -37 -157 -9 -38 -20 -68 -25 -68 -5 0 -40 -18 -78 -39 l-70 -40 -77 43 -78 43 -18 74 c-10 41 -23 94 -29 119 -8 38 -19 83 -33 136 -2 6 -35 32 -74 58 l-71 46 0 75 c0 43 5 84 12 95 24 39 -37 81 -70 48z"></path>
  </g>
</svg>